<?xml version="1.0" standalone="no"?>
<!DOCTYPE svg PUBLIC "-//W3C//DTD SVG 20010904//EN"
 "http://www.w3.org/TR/2001/REC-SVG-20010904/DTD/svg10.dtd">
<svg version="1.0" xmlns="http://www.w3.org/2000/svg"
 width="700.000000pt" height="700.000000pt" viewBox="0 0 700.000000 700.000000"
 preserveAspectRatio="xMidYMid meet">
<metadata>
Created by potrace 1.11, written by Peter Selinger 2001-2013
</metadata>
<g transform="translate(0.000000,700.000000) scale(0.100000,-0.100000)"
fill="#000000" stroke="none">
<path d="M4160 6985 c-343 -73 -588 -333 -636 -675 -36 -251 62 -521 250 -690
108 -98 262 -175 391 -198 52 -9 250 -8 295 2 55 11 111 27 129 36 9 4 34 15
56 25 141 60 286 198 369 350 118 218 120 499 6 725 -107 210 -309 370 -530
420 -74 16 -262 19 -330 5z"/>
<path d="M4130 5123 c-98 -11 -145 -19 -284 -48 -53 -12 -232 -71 -318 -107
-130 -53 -261 -121 -363 -191 -84 -56 -119 -81 -125 -87 -3 -3 -27 -22 -53
-44 -81 -65 -219 -206 -289 -296 -250 -322 -369 -682 -363 -1092 2 -135 1
-149 -14 -143 -307 123 -596 132 -881 29 -152 -54 -300 -152 -425 -279 -177
-179 -311 -428 -369 -688 -30 -130 -40 -223 -39 -362 0 -133 5 -181 27 -305
47 -260 166 -519 339 -740 129 -165 311 -334 388 -360 159 -54 309 108 244
265 -9 20 -44 62 -78 93 -298 273 -451 530 -502 842 -4 25 -9 54 -11 65 -7 35
-7 217 0 284 40 363 275 706 559 812 218 82 466 51 722 -89 98 -54 188 -120
486 -352 127 -100 232 -180 234 -178 1 2 -20 73 -47 158 -136 421 -179 558
-184 590 -3 19 -8 44 -11 55 -9 27 -11 40 -18 105 -4 30 -9 64 -12 74 -6 21
-6 270 1 301 2 11 7 43 11 70 15 108 53 229 110 350 153 327 450 592 835 746
111 45 290 96 367 105 21 3 49 7 63 9 142 27 407 22 570 -11 83 -16 219 -53
235 -62 6 -4 15 -7 22 -8 6 -1 56 -23 109 -48 310 -147 559 -400 718 -728 53
-109 138 -346 149 -413 3 -16 9 -48 15 -70 6 -22 14 -60 17 -85 3 -25 8 -56
10 -70 23 -157 23 -505 -1 -615 -5 -26 -12 -66 -20 -124 -21 -157 -124 -496
-209 -696 -50 -118 -144 -309 -194 -394 -17 -28 -31 -54 -31 -56 0 -17 -160
-255 -275 -410 -89 -120 -104 -150 -100 -211 7 -114 106 -199 220 -187 89 9
132 51 306 298 316 447 542 944 648 1427 16 73 32 149 35 168 3 19 8 46 11 60
33 171 39 603 11 780 -3 14 -10 59 -16 100 -58 374 -226 770 -444 1050 -275
354 -668 594 -1121 685 -66 13 -145 27 -175 30 -109 12 -377 11 -490 -2z"/>
<path d="M1140 4482 c-14 -1 -50 -10 -80 -19 -204 -60 -351 -253 -350 -458 0
-84 4 -109 30 -179 112 -299 485 -412 740 -223 30 23 63 51 73 64 10 13 24 29
31 36 53 54 97 186 97 292 2 218 -139 403 -356 470 -49 15 -136 23 -185 17z"/>
<path d="M4815 522 c-177 -75 -534 -188 -688 -218 -12 -2 -44 -8 -72 -14 -27
-5 -66 -12 -85 -15 -19 -3 -60 -10 -90 -15 -65 -11 -146 -21 -280 -35 -222
-22 -616 -22 -820 0 -19 2 -64 6 -100 10 -36 3 -76 8 -90 10 -14 2 -45 7 -70
10 -143 18 -333 58 -510 108 -167 46 -204 48 -236 10 -46 -54 -32 -128 30
-157 30 -14 245 -79 299 -90 163 -34 333 -66 377 -71 30 -4 66 -9 80 -11 23
-4 42 -6 145 -19 221 -26 739 -26 950 -1 17 2 57 7 90 10 49 5 220 32 320 51
54 9 251 56 302 71 32 10 63 19 68 20 43 8 344 112 430 149 145 62 165 78 165
138 0 29 -7 45 -30 68 -38 39 -78 37 -185 -9z"/>
</g>
</svg>
