<?xml version="1.0" encoding="utf-8"?>
<!-- Generator: Adobe Illustrator 19.0.0, SVG Export Plug-In . SVG Version: 6.00 Build 0)  -->
<svg version="1.1" id="Layer_1" xmlns="http://www.w3.org/2000/svg" xmlns:xlink="http://www.w3.org/1999/xlink" x="0px" y="0px"
	 viewBox="0 0 1000 1000" style="enable-background:new 0 0 1000 1000;" xml:space="preserve">
<style type="text/css">
	.st0{fill:#FFFFFF;}
</style>
<g id="XMLID_1_">
	<g id="XMLID_340_">
		<path id="XMLID_397_" class="st0" d="M203.1,943.4c-6.4,0-12.7-2.1-18.1-6.4C64.3,839.2,63.4,691.1,132.3,604.4
			c43-54.1,118-84,202.1-48.4c-7.2-75.6,16.9-144.9,70.4-199.8c76.3-78.2,198.7-109.7,304.6-78.3c103.4,30.5,173.5,113,197.5,232.3
			C948.5,724.7,791.7,907.7,785,915.3c-10.4,12-28.5,13.2-40.5,2.8c-12-10.4-13.2-28.6-2.8-40.5c1.4-1.7,145-169.9,108.9-356.3
			C831,424.2,775.1,357.2,693.2,333c-84.7-25-186.4,1-247.2,63.4c-53.4,54.7-68.6,128.9-42.9,208.8l28.6,88.8l-73.6-57.3
			c-68.9-53.7-136.5-52.4-180.9,3.5c-51.5,64.8-49.1,176.9,43.9,252.3c12.3,10,14.2,28.1,4.2,40.4
			C219.7,939.8,211.4,943.4,203.1,943.4z"/>
	</g>
	<g id="XMLID_336_">
		<path id="XMLID_341_" class="st0" d="M455.7,1000c-112.5,0-191.8-28.2-197.2-30.2c-7.4-2.7-11.3-11-8.6-18.4
			c2.7-7.4,10.9-11.3,18.4-8.6c2.1,0.8,211.6,74.9,430.7-22c7.2-3.2,15.7,0.1,18.9,7.3c3.2,7.3-0.1,15.7-7.3,18.9
			C619.1,987.6,530.1,1000,455.7,1000z"/>
	</g>
	<g id="XMLID_249_">
		<circle id="XMLID_331_" class="st0" cx="615.8" cy="113.6" r="113.6"/>
	</g>
	<g id="XMLID_244_">
		<circle id="XMLID_245_" class="st0" cx="170.8" cy="429.1" r="69.8"/>
	</g>
</g>
</svg>
