<?xml version="1.0" encoding="utf-8"?>
<!-- Generator: Adobe Illustrator 19.0.0, SVG Export Plug-In . SVG Version: 6.00 Build 0)  -->
<svg version="1.1" id="Layer_1" xmlns="http://www.w3.org/2000/svg" xmlns:xlink="http://www.w3.org/1999/xlink" x="0px" y="0px"
	 viewBox="-209 423 572.9 164" style="enable-background:new -209 423 572.9 164;" xml:space="preserve">
<style type="text/css">
	.st0{enable-background:new    ;}
	.st1{fill:#FFFFFF;}
</style>
<g>
	<g class="st0">
		<path class="st1" d="M-35.3,536.3l17.8-40.3c0.7-1.7,1.3-3.1,2-4.2c0.7-1.1,1.4-2,2.2-2.6c0.8-0.7,1.6-1.1,2.5-1.4
			c0.9-0.3,1.9-0.4,3.1-0.4c1.1,0,2.2,0.2,3.2,0.5c1,0.4,1.9,0.9,2.7,1.7c0.8,0.8,1.4,1.7,1.8,2.9c0.5,1.2,0.7,2.7,0.7,4.4v48.6
			c0,0.9-0.1,1.6-0.4,2.2c-0.3,0.6-0.7,1.2-1.1,1.6c-0.5,0.4-1,0.7-1.6,1c-0.6,0.2-1.2,0.3-1.8,0.3s-1.2-0.1-1.8-0.3
			c-0.6-0.2-1.1-0.5-1.6-1c-0.5-0.4-0.8-1-1.1-1.6c-0.3-0.6-0.4-1.4-0.4-2.2v-46.8l-19.5,44.7c-0.3,0.8-0.7,1.5-1.2,2.2
			c-0.5,0.6-1,1.1-1.6,1.6s-1.3,0.7-2,1c-0.7,0.2-1.4,0.3-2.1,0.3c-1.3,0-2.6-0.4-3.8-1.2c-1.2-0.8-2.1-2.1-2.7-3.8l-19.4-44.5v46.5
			c0,0.9-0.1,1.6-0.4,2.2c-0.3,0.6-0.7,1.2-1.1,1.6c-0.5,0.4-1,0.7-1.6,1c-0.6,0.2-1.2,0.3-1.8,0.3s-1.2-0.1-1.8-0.3
			c-0.6-0.2-1.1-0.5-1.6-1c-0.5-0.4-0.8-1-1.1-1.6c-0.3-0.6-0.4-1.4-0.4-2.2v-48.6c0-1.7,0.2-3.2,0.7-4.4c0.5-1.2,1.1-2.2,1.9-2.9
			c0.8-0.8,1.7-1.3,2.7-1.7s2.1-0.5,3.3-0.5c1.1,0,2.2,0.1,3.1,0.4c0.9,0.3,1.8,0.7,2.5,1.4c0.8,0.7,1.5,1.5,2.2,2.7
			c0.7,1.1,1.3,2.5,2,4.2l17.5,40.2H-35.3z"/>
		<path class="st1" d="M40.5,521.4c0-1.5-0.2-2.7-0.6-3.7c-0.4-1-1-1.8-1.8-2.4c-0.8-0.6-1.7-1.1-2.7-1.3c-1.1-0.3-2.3-0.4-3.5-0.4
			c-1.5,0-2.8,0.1-4,0.2c-1.2,0.2-2.3,0.4-3.4,0.7c-1,0.3-2,0.6-2.9,1c-0.9,0.4-1.8,0.8-2.7,1.2c-0.4,0.2-0.9,0.3-1.3,0.3
			c-0.4,0-0.8-0.1-1.2-0.2c-0.4-0.2-0.7-0.4-1-0.7c-0.3-0.3-0.5-0.6-0.7-1c-0.2-0.4-0.2-0.7-0.2-1.1c0-0.3,0.1-0.6,0.2-0.9
			c0.1-0.2,0.3-0.5,0.5-0.9c1.4-2.1,3.6-3.6,6.6-4.6c3-1,6.5-1.4,10.7-1.4c2.6,0,4.9,0.3,7.1,0.9c2.2,0.6,4.1,1.5,5.7,2.8
			c1.6,1.3,2.8,2.9,3.7,5c0.9,2,1.3,4.5,1.3,7.4v24c0,0.8-0.2,1.4-0.5,2c-0.3,0.6-0.6,1-1.1,1.4c-0.5,0.4-1,0.7-1.5,0.9
			c-0.6,0.2-1.2,0.3-1.7,0.3c-0.6,0-1.1-0.1-1.6-0.3c-0.5-0.2-1-0.4-1.5-0.8c-0.4-0.4-0.8-0.8-1-1.3c-0.3-0.5-0.4-1.1-0.4-1.8v-3.3
			c-0.6,1.1-1.4,2.1-2.4,3.2c-1,1.1-2.2,2-3.5,2.7c-1.3,0.7-2.7,1.3-4.2,1.6c-1.5,0.4-2.9,0.5-4.4,0.5c-2.1,0-4.1-0.3-5.9-0.9
			c-1.8-0.6-3.4-1.4-4.7-2.6c-1.3-1.1-2.4-2.5-3.1-4.1c-0.8-1.6-1.1-3.3-1.1-5.1c0-2.7,0.6-5,1.7-6.9c1.2-1.9,2.8-3.4,5-4.6
			c2.2-1.2,4.8-2,7.8-2.6s6.5-0.8,10.2-0.8c0.6,0,1.3,0,2.2,0c0.9,0,1.6,0,2.3,0.1V521.4z M40.4,529.6c-0.2,0-0.5,0-0.9,0
			c-0.3,0-0.7,0-1.1,0c-0.4,0-0.7,0-1.1,0c-0.4,0-0.7,0-1,0c-1.8,0-3.7,0.1-5.5,0.3s-3.5,0.6-5,1.2c-1.5,0.6-2.7,1.5-3.6,2.6
			c-0.9,1.1-1.4,2.5-1.4,4.3c0,0.9,0.2,1.8,0.7,2.7c0.4,0.9,1,1.7,1.8,2.3c0.7,0.6,1.6,1.1,2.7,1.4c1,0.3,2.1,0.5,3.3,0.5
			c1.6,0,3-0.3,4.3-0.8c1.3-0.5,2.5-1.3,3.5-2.4c1-1,1.8-2.2,2.4-3.6c0.6-1.3,0.9-3,0.9-5.1V529.6z"/>
		<path class="st1" d="M122.2,522.8c0-1.7-0.2-3.1-0.7-4.4s-1.1-2.3-1.9-3.1c-0.8-0.8-1.7-1.4-2.7-1.8c-1-0.4-2.1-0.6-3.2-0.6
			c-1.4,0-2.8,0.2-4.1,0.7c-1.3,0.4-2.5,1.1-3.6,2.1c-1.1,1-1.9,2.2-2.5,3.7c-0.6,1.5-0.9,3.4-0.9,5.6v20.6c0,0.8-0.1,1.5-0.4,2.2
			c-0.3,0.6-0.7,1.1-1.2,1.6s-1,0.7-1.7,0.9c-0.6,0.2-1.3,0.3-1.9,0.3s-1.3-0.1-1.9-0.3c-0.6-0.2-1.1-0.5-1.6-0.9
			c-0.5-0.4-0.9-0.9-1.2-1.6c-0.3-0.6-0.4-1.3-0.4-2.2v-22.9c0-1.7-0.2-3.1-0.7-4.4c-0.5-1.2-1.1-2.3-1.9-3.1
			c-0.8-0.8-1.7-1.4-2.7-1.8s-2.1-0.6-3.2-0.6c-1.5,0-3,0.3-4.3,0.7c-1.3,0.5-2.5,1.3-3.5,2.3c-1,1-1.8,2.2-2.4,3.5
			c-0.6,1.3-0.9,3-0.9,5.1v21.2c0,0.8-0.2,1.5-0.5,2.2c-0.3,0.6-0.7,1.1-1.2,1.5c-0.5,0.4-1,0.7-1.7,0.9c-0.6,0.2-1.3,0.3-1.9,0.3
			c-0.6,0-1.3-0.1-1.9-0.3c-0.6-0.2-1.1-0.5-1.6-0.9c-0.5-0.4-0.9-0.9-1.2-1.5c-0.3-0.6-0.4-1.3-0.4-2.2v-34.3
			c0-0.8,0.1-1.5,0.4-2.1c0.3-0.6,0.7-1.1,1.2-1.5c0.5-0.4,1-0.7,1.7-0.9c0.6-0.2,1.3-0.3,1.9-0.3c0.6,0,1.2,0.1,1.8,0.3
			c0.6,0.2,1.1,0.5,1.6,0.8c0.5,0.4,0.9,0.8,1.2,1.4c0.3,0.6,0.5,1.2,0.5,2c0,0,0,0.2,0,0.6c0,0.4,0,0.7,0,1.1c0,0.4,0,0.8,0,1.2
			c0,0.4,0,0.6,0,0.6c0.6-1.1,1.3-2.2,2.4-3.3c1-1.1,2.2-2.1,3.5-2.9c1.3-0.8,2.7-1.4,4.2-1.8c1.5-0.4,3-0.6,4.6-0.6
			c1.6,0,3.1,0.2,4.6,0.6c1.5,0.4,2.9,1,4.1,1.8c1.2,0.8,2.4,1.9,3.3,3.1c1,1.3,1.7,2.8,2.3,4.5c1-1.9,2.1-3.5,3.3-4.7
			c1.2-1.3,2.5-2.3,3.8-3.1c1.3-0.8,2.7-1.4,4.2-1.7s2.9-0.5,4.4-0.5c2.1,0,4,0.3,5.8,1c1.8,0.7,3.5,1.7,4.9,3
			c1.4,1.4,2.5,3.1,3.3,5.2c0.8,2.1,1.2,4.6,1.2,7.6v22.8c0,0.8-0.2,1.5-0.5,2.2c-0.3,0.6-0.7,1.1-1.2,1.5c-0.5,0.4-1,0.7-1.7,0.9
			c-0.6,0.2-1.3,0.3-1.9,0.3s-1.3-0.1-1.9-0.3c-0.6-0.2-1.1-0.5-1.6-0.9c-0.5-0.4-0.9-0.9-1.2-1.5c-0.3-0.6-0.4-1.3-0.4-2.2V522.8z"
			/>
		<path class="st1" d="M155.9,492.1c0,1.4-0.6,2.6-1.7,3.5c-1.1,0.9-2.6,1.4-4.4,1.4c-0.9,0-1.7-0.1-2.4-0.4s-1.4-0.6-1.9-1
			c-0.5-0.4-1-1-1.3-1.6c-0.3-0.6-0.5-1.3-0.5-2s0.2-1.4,0.5-2c0.3-0.6,0.7-1.1,1.3-1.6c0.5-0.4,1.2-0.8,2-1
			c0.8-0.2,1.6-0.4,2.5-0.4c0.9,0,1.7,0.1,2.4,0.4c0.7,0.2,1.4,0.6,1.9,1c0.5,0.4,0.9,1,1.3,1.6
			C155.8,490.7,155.9,491.4,155.9,492.1z M144.7,511.8c0-0.8,0.1-1.6,0.4-2.2c0.3-0.6,0.7-1.2,1.2-1.6s1-0.7,1.7-1
			c0.6-0.2,1.3-0.3,1.9-0.3s1.3,0.1,1.9,0.3c0.6,0.2,1.2,0.5,1.7,1c0.5,0.4,0.9,1,1.2,1.6c0.3,0.6,0.4,1.4,0.4,2.2v33.8
			c0,0.9-0.2,1.6-0.5,2.2c-0.3,0.6-0.7,1.2-1.2,1.6c-0.5,0.4-1,0.7-1.7,1c-0.6,0.2-1.3,0.3-1.9,0.3s-1.3-0.1-1.9-0.3
			c-0.6-0.2-1.2-0.5-1.6-0.9c-0.5-0.4-0.9-1-1.1-1.6c-0.3-0.6-0.4-1.4-0.4-2.2V511.8z"/>
		<path class="st1" d="M168.5,493.2c0-0.8,0.2-1.6,0.5-2.3c0.3-0.7,0.7-1.3,1.3-1.8c0.5-0.5,1.1-0.9,1.8-1.2s1.4-0.4,2.2-0.4h30.3
			c0.7,0,1.4,0.1,1.9,0.4c0.5,0.3,1,0.6,1.4,1c0.4,0.4,0.6,0.9,0.8,1.4c0.2,0.5,0.3,1,0.3,1.6c0,0.5-0.1,1.1-0.3,1.6s-0.4,1-0.8,1.4
			c-0.4,0.4-0.8,0.7-1.4,1c-0.5,0.3-1.2,0.4-1.9,0.4h-24.2v17.5h23c0.7,0,1.4,0.1,1.9,0.4c0.5,0.3,1,0.6,1.4,1
			c0.4,0.4,0.6,0.9,0.8,1.4c0.2,0.5,0.3,1.1,0.3,1.6c0,0.6-0.1,1.1-0.3,1.6c-0.2,0.5-0.4,1-0.8,1.4c-0.4,0.4-0.8,0.7-1.4,1
			c-0.5,0.2-1.2,0.4-1.9,0.4h-23V545c0,0.9-0.2,1.8-0.5,2.5c-0.3,0.7-0.8,1.3-1.3,1.8c-0.6,0.5-1.2,0.8-1.9,1.1
			c-0.7,0.2-1.4,0.4-2.2,0.4c-0.7,0-1.5-0.1-2.2-0.4s-1.3-0.6-1.9-1.1c-0.6-0.5-1-1.1-1.3-1.8c-0.3-0.7-0.5-1.5-0.5-2.5V493.2z"/>
		<path class="st1" d="M213.6,528.7c0-2.7,0.5-5.4,1.4-8.2c0.9-2.8,2.4-5.3,4.3-7.4c1.9-2.1,4.3-3.8,7.2-5.1
			c2.9-1.3,6.3-1.9,10.2-1.9c3.9,0,7.3,0.6,10.2,1.9c2.9,1.3,5.3,3,7.2,5.1c1.9,2.1,3.3,4.6,4.3,7.4c0.9,2.8,1.4,5.5,1.4,8.2
			c0,2.7-0.5,5.4-1.4,8.2s-2.4,5.2-4.3,7.3s-4.3,3.8-7.2,5.1c-2.9,1.3-6.3,1.9-10.2,1.9c-3.9,0-7.3-0.6-10.2-1.9
			c-2.9-1.3-5.3-3-7.2-5.1c-1.9-2.1-3.3-4.6-4.3-7.3C214,534.1,213.6,531.4,213.6,528.7z M224.4,528.7c0,1.7,0.2,3.6,0.7,5.5
			c0.5,2,1.2,3.7,2.2,5.2c1,1.5,2.2,2.7,3.8,3.6c1.5,0.9,3.4,1.4,5.6,1.4c2.2,0,4-0.5,5.6-1.4c1.5-0.9,2.8-2.1,3.8-3.6
			c1-1.5,1.7-3.2,2.2-5.2c0.5-1.9,0.7-3.8,0.7-5.5c0-1.7-0.2-3.6-0.7-5.5c-0.5-1.9-1.2-3.7-2.2-5.2c-1-1.5-2.2-2.7-3.8-3.7
			c-1.5-0.9-3.4-1.4-5.6-1.4c-2.2,0-4,0.5-5.6,1.4c-1.5,0.9-2.8,2.1-3.8,3.7c-1,1.5-1.7,3.3-2.2,5.2
			C224.7,525.2,224.4,527,224.4,528.7z"/>
		<path class="st1" d="M266.7,528.7c0-2.7,0.5-5.4,1.4-8.2c0.9-2.8,2.4-5.3,4.3-7.4c1.9-2.1,4.3-3.8,7.2-5.1
			c2.9-1.3,6.3-1.9,10.2-1.9c3.9,0,7.3,0.6,10.2,1.9c2.9,1.3,5.3,3,7.2,5.1c1.9,2.1,3.3,4.6,4.3,7.4c0.9,2.8,1.4,5.5,1.4,8.2
			c0,2.7-0.5,5.4-1.4,8.2s-2.4,5.2-4.3,7.3s-4.3,3.8-7.2,5.1c-2.9,1.3-6.3,1.9-10.2,1.9c-3.9,0-7.3-0.6-10.2-1.9
			c-2.9-1.3-5.3-3-7.2-5.1c-1.9-2.1-3.3-4.6-4.3-7.3C267.1,534.1,266.7,531.4,266.7,528.7z M277.5,528.7c0,1.7,0.2,3.6,0.7,5.5
			c0.5,2,1.2,3.7,2.2,5.2c1,1.5,2.2,2.7,3.8,3.6c1.5,0.9,3.4,1.4,5.6,1.4c2.2,0,4-0.5,5.6-1.4c1.5-0.9,2.8-2.1,3.8-3.6
			c1-1.5,1.7-3.2,2.2-5.2c0.5-1.9,0.7-3.8,0.7-5.5c0-1.7-0.2-3.6-0.7-5.5c-0.5-1.9-1.2-3.7-2.2-5.2c-1-1.5-2.2-2.7-3.8-3.7
			c-1.5-0.9-3.4-1.4-5.6-1.4c-2.2,0-4,0.5-5.6,1.4c-1.5,0.9-2.8,2.1-3.8,3.7c-1,1.5-1.7,3.3-2.2,5.2
			C277.7,525.2,277.5,527,277.5,528.7z"/>
		<path class="st1" d="M363.9,545.8c0,0.8-0.1,1.5-0.4,2.2c-0.3,0.6-0.7,1.1-1.1,1.5c-0.5,0.4-1,0.7-1.6,0.9
			c-0.6,0.2-1.2,0.3-1.9,0.3c-0.6,0-1.2-0.1-1.8-0.3c-0.6-0.2-1.2-0.5-1.6-0.9c-0.5-0.4-0.9-0.9-1.2-1.5c-0.3-0.6-0.5-1.3-0.6-2
			v-0.4c0-0.3,0-0.7,0-1.1c0-0.4,0-0.7-0.1-1V543c-1.9,2.7-4.2,4.8-6.8,6.2c-2.6,1.4-5.4,2.1-8.6,2.1c-3,0-5.7-0.6-7.9-1.9
			c-2.3-1.3-4.1-3-5.7-5.2c-1.5-2.2-2.6-4.6-3.4-7.4c-0.8-2.8-1.1-5.6-1.1-8.3c0-2.9,0.4-5.7,1.2-8.5c0.8-2.8,2-5.2,3.5-7.2
			c1.5-2,3.5-3.6,5.7-4.8c2.3-1.2,4.9-1.8,7.9-1.8c1.5,0,3,0.2,4.5,0.5c1.5,0.4,2.9,0.9,4.2,1.6c1.3,0.7,2.6,1.6,3.7,2.7
			c1.1,1.1,2.1,2.1,2.8,3.2v-21.9c0-0.8,0.1-1.5,0.4-2.1c0.3-0.6,0.7-1.1,1.2-1.5c0.5-0.4,1-0.7,1.6-0.9c0.6-0.2,1.2-0.3,1.9-0.3
			c0.6,0,1.3,0.1,1.9,0.3s1.2,0.5,1.7,0.9c0.5,0.4,0.9,0.9,1.2,1.5c0.3,0.6,0.4,1.3,0.4,2.1V545.8z M341.8,513
			c-2.1,0-3.9,0.4-5.3,1.3s-2.6,2.1-3.4,3.5c-0.9,1.5-1.5,3.1-1.8,5c-0.4,1.9-0.5,3.7-0.5,5.4c0,1.7,0.1,3.5,0.4,5.4
			c0.3,2,0.8,3.7,1.6,5.3s1.9,2.9,3.3,3.9c1.4,1,3.2,1.5,5.3,1.5c2.4,0,4.3-0.4,5.9-1.3c1.6-0.8,2.8-2,3.7-3.5
			c0.9-1.5,1.6-3.2,2-5.1c0.4-1.9,0.6-4.1,0.6-6.6c0-2.3-0.2-4.2-0.6-5.9s-1-3.2-2-4.6c-0.9-1.4-2.1-2.5-3.6-3.3
			C345.8,513.4,344,513,341.8,513z"/>
	</g>
	<g id="XMLID_178_">
		<path class="st1" d="M263.7,584c-18.1,0-31.5-17-32.1-17.8c-1.4-1.7-1-4.3,0.7-5.6c1.7-1.4,4.3-1,5.6,0.7l0,0
			c0.1,0.1,11.6,14.7,25.8,14.7c0.1,0,0.2,0,0.3,0c8-0.1,15.7-5,22.8-14.6c1.3-1.8,3.8-2.2,5.6-0.8c1.8,1.3,2.2,3.8,0.8,5.6
			c-8.6,11.7-18.4,17.7-29.1,17.8C264,584,263.8,584,263.7,584z"/>
	</g>
	<g id="XMLID_259_">
		<path id="XMLID_260_" class="st1" d="M-191.1,557.5c-0.9,0-1.8-0.3-2.5-0.9c-16.8-13.7-16.9-34.3-7.3-46.4
			c6-7.5,16.4-11.7,28.2-6.7c-1-10.5,2.4-20.2,9.8-27.8c10.6-10.9,27.6-15.3,42.4-11c14.4,4.3,24.2,15.8,27.5,32.4
			c5.8,29.9-16.1,55.4-17,56.4c-1.5,1.7-4,1.8-5.6,0.4c-1.7-1.5-1.8-4-0.4-5.6c0.2-0.2,20.2-23.7,15.2-49.6
			c-2.7-13.5-10.5-22.9-21.9-26.2c-11.8-3.5-26,0.1-34.4,8.8c-7.4,7.6-9.6,18-6,29.1l4,12.4l-10.3-8c-9.6-7.5-19-7.3-25.2,0.5
			c-7.2,9-6.8,24.6,6.1,35.2c1.7,1.4,2,3.9,0.6,5.6C-188.7,557-189.9,557.5-191.1,557.5z"/>
	</g>
	<g id="XMLID_257_">
		<path id="XMLID_258_" class="st1" d="M-155.9,565.3c-15.7,0-26.7-3.9-27.5-4.2c-1-0.4-1.6-1.5-1.2-2.6c0.4-1.1,1.5-1.6,2.6-1.2
			c0.3,0.1,29.5,10.4,60-3.1c1-0.4,2.2,0,2.6,1s0,2.2-1,2.6C-133.1,563.6-145.5,565.3-155.9,565.3z"/>
	</g>
	<g id="XMLID_255_">
		<circle id="XMLID_256_" class="st1" cx="-133.5" cy="441.8" r="15.8"/>
	</g>
	<g id="XMLID_253_">
		<circle id="XMLID_254_" class="st1" cx="-195.5" cy="485.8" r="9.7"/>
	</g>
</g>
</svg>
